<?xml version="1.0" encoding="UTF-8"?>
<svg version="1.1" xmlns="http://www.w3.org/2000/svg" width="2000" height="2000">
<path d="M0 0 C660 0 1320 0 2000 0 C2000 660 2000 1320 2000 2000 C1340 2000 680 2000 0 2000 C0 1340 0 680 0 0 Z " fill="#353030" transform="translate(0,0)"/>
<path d="M0 0 C2.19656708 0.54182308 4.3964557 1.01279607 6.61376953 1.46142578 C20.83983271 4.38819626 35.87791936 9.58711117 44.36914062 22.24169922 C45.91723043 24.75860227 47.39078759 27.31088131 48.83276367 29.88989258 C51.32051653 34.27134906 53.99403862 37.72319056 57.48486328 41.36376953 C62.47725915 46.57288956 65.53958009 51.86275196 67.98486328 58.62548828 C69.20338765 61.92796625 69.9653084 63.37973461 72.98486328 65.30126953 C75.22429851 66.16259077 77.47528226 66.99427631 79.73486328 67.80126953 C85.90996306 70.88881942 88.95222718 75.10683553 91.29736328 81.55126953 C93.52790189 88.99546546 95.08273934 96.59928939 96.67626953 104.19970703 C97.89135396 109.98558766 99.16246931 115.75760428 100.44970703 121.52783203 C100.84993777 123.32769937 101.25008336 125.12758564 101.65014648 126.92749023 C102.24707946 129.61292343 102.84511788 132.29807557 103.44760132 134.98226929 C107.59694234 153.48808006 111.61519003 171.90018916 111.05126953 190.95751953 C110.37979345 214.26649664 111.95196187 236.97009176 114.71332932 260.08828735 C114.98285468 262.34693723 115.24823185 264.60604755 115.51321411 266.86523438 C115.94013774 270.48258021 116.38249427 274.09773623 116.83745766 277.71166039 C117.0839832 279.67656387 117.32318004 281.64238265 117.5620575 283.60823059 C118.97313743 294.37704533 120.97542891 305.25773864 125.76611328 315.08642578 C128.83892769 321.46815388 130.28691013 328.08931882 131.73486328 334.98876953 C131.95564041 336.00698792 131.95564041 336.00698792 132.18087769 337.04577637 C134.93865981 349.80409395 136.82776069 362.64725284 138.28564453 375.61547852 C139.21084198 383.40746616 140.75951271 390.46875571 143.25048828 397.91455078 C147.3082313 410.34559475 147.72728343 423.01364895 148.42236328 435.98876953 C148.62662124 439.58414375 148.83787642 443.17870139 149.06477356 446.77272034 C149.20352426 448.98667997 149.32895461 451.20152758 149.43901062 453.417099 C149.81091052 460.47966274 149.81091052 460.47966274 153.23486328 466.55126953 C154.28969122 467.46043075 155.37210937 468.33900324 156.48486328 469.17626953 C158.55590697 471.18067073 159.19054052 472.08957414 159.46923828 474.99267578 C159.14538869 478.78711354 158.45865062 482.45193467 157.69970703 486.18017578 C155.45109712 497.35659984 155.01130427 507.03775914 159.03955078 517.71533203 C162.65242803 527.90444652 164.28208425 538.20224441 165.85986328 548.86376953 C166.39672282 552.48788948 166.95397033 556.10800525 167.52392578 559.72705078 C167.63757477 560.54160233 167.75122375 561.35615387 167.86831665 562.19538879 C168.63111895 567.02237853 169.657587 569.98623552 173.23486328 573.55126953 C174.16298828 574.14939453 175.09111328 574.74751953 176.04736328 575.36376953 C181.24039491 578.92761477 186.8715518 584.18914928 188.23486328 590.55126953 C188.74385163 596.31037841 189.04673645 599.97702173 185.23486328 604.55126953 C183.84280936 608.980532 183.61362017 613.95734024 184.23486328 618.55126953 C185.51998202 620.58258625 186.85362365 622.58404945 188.23486328 624.55126953 C189.60036559 629.36394899 189.31756501 633.01833047 187.23486328 637.55126953 C186.56250665 641.80952819 188.00098578 643.88712321 190.21142578 647.45361328 C192.76069108 652.67863414 193.23486328 658.81265104 193.23486328 664.55126953 C193.82654297 664.63763672 194.41822266 664.72400391 195.02783203 664.81298828 C200.59786266 665.80341787 203.51944541 667.023104 207.23486328 671.55126953 C207.56486328 671.88126953 207.89486328 672.21126953 208.23486328 672.55126953 C208.73029117 679.48725994 208.08699693 686.14138531 203.47705078 691.65283203 C202.24113927 692.94878783 200.97090318 694.21334416 199.66064453 695.43408203 C197.00482039 699.37779898 198.08144281 704.16334303 198.915802 708.65020752 C199.23134349 710.18023747 199.55445367 711.70871959 199.88378906 713.23583984 C200.05946915 714.07797028 200.23514923 714.92010071 200.41615295 715.78775024 C200.79773349 717.61235808 201.18252886 719.43629595 201.57019424 721.25962067 C202.19171418 724.18367913 202.80440916 727.10947049 203.41500854 730.03582764 C204.72218319 736.29261993 206.04037357 742.54706455 207.35986328 748.80126953 C215.5282255 787.52890732 222.74832652 826.03338318 227.76928711 865.30493164 C229.73084746 880.56319128 232.08555805 895.63506348 235.0949707 910.72241211 C236.5878619 918.23724241 237.74964077 925.78376441 238.85986328 933.36376953 C240.11046732 941.88562206 241.5743996 950.22629793 243.58789062 958.60131836 C244.49016292 962.71533956 244.90293553 966.79664501 245.23486328 970.98876953 C246.3246967 982.94539135 246.3246967 982.94539135 249.23486328 994.55126953 C253.12445608 997.1443314 255.40196628 996.90333626 259.89892578 996.03955078 C260.66978516 995.87841797 261.44064453 995.71728516 262.23486328 995.55126953 C268.53407298 1004.8378942 271.19745624 1013.54648857 273.54736328 1024.36376953 C274.04659883 1026.56588036 274.55142828 1028.76666126 275.05644226 1030.967453 C275.50787351 1032.94890631 275.94661706 1034.933238 276.38452148 1036.91772461 C277.22319573 1040.50141361 278.20359232 1044.01883603 279.23486328 1047.55126953 C281.32129683 1056.23186345 283.96743638 1067.61183748 279.35986328 1075.80126953 C276.98304544 1079.064242 274.04721038 1081.50331606 270.98486328 1084.11376953 C266.7690231 1087.6125908 266.7690231 1087.6125908 265.10986328 1092.61376953 C265.17173828 1094.06783203 265.17173828 1094.06783203 265.23486328 1095.55126953 C265.88712891 1095.40689453 266.53939453 1095.26251953 267.21142578 1095.11376953 C277.46086438 1092.93689762 277.46086438 1092.93689762 281.23486328 1093.55126953 C287.31678642 1097.86009282 287.7990195 1103.71939384 289.04736328 1110.73876953 C289.26328125 1111.82480469 289.47919922 1112.91083984 289.70166016 1114.02978516 C292.87856178 1130.82197947 292.87856178 1130.82197947 289.89819336 1135.77075195 C288.23486328 1137.55126953 288.23486328 1137.55126953 285.29736328 1138.48876953 C281.52934465 1139.7960413 280.33633135 1141.20448706 278.23486328 1144.55126953 C273.59304899 1163.36609014 282.1531087 1186.40919259 291.41064453 1202.66455078 C293.69277743 1206.27589171 296.14986542 1209.74729448 298.60986328 1213.23876953 C314.21849703 1235.52551424 322.37560259 1261.83128436 322.73486328 1289.05126953 C322.75339355 1289.91727783 322.77192383 1290.78328613 322.79101562 1291.67553711 C322.73572236 1297.15878572 321.76220597 1300.15337609 318.23486328 1304.55126953 C317.33075156 1305.92084039 316.43365879 1307.2951024 315.54736328 1308.67626953 C315.13099609 1309.31822266 314.71462891 1309.96017578 314.28564453 1310.62158203 C310.51949898 1317.53784933 311.57466 1328.00615088 312.73486328 1335.61376953 C314.31603895 1348.06552789 313.63627092 1358.60258384 306.17236328 1368.98876953 C301.28514561 1375.97577169 300.43965249 1383.99015539 299.27001953 1392.25756836 C297.18938405 1406.73288836 292.98724479 1419.61459606 286.27172852 1432.59643555 C272.86392517 1458.52116891 267.6516974 1485.76830501 265.93530273 1514.66772461 C265.55272789 1521.07393844 265.09607702 1527.38823755 264.17236328 1533.73876953 C263.00704542 1542.03255525 262.81173592 1550.3466255 262.57641602 1558.7121582 C262.42941031 1563.83028781 262.22873944 1568.897427 261.71533203 1573.99267578 C261.20561204 1579.63901893 261.16747001 1585.24276556 261.16455078 1590.90673828 C261.03400788 1648.78322851 261.03400788 1648.78322851 243.23095703 1667.73486328 C232.769057 1677.25498758 220.33714016 1678.86184316 206.64501953 1678.94970703 C198.94828183 1678.05043184 193.59270711 1673.29370069 188.67236328 1667.57080078 C187.85280011 1666.50719572 187.04029691 1665.43811407 186.23486328 1664.36376953 C185.43048828 1663.31833984 184.62611328 1662.27291016 183.79736328 1661.19580078 C182.93285067 1659.98829758 182.07942552 1658.77280981 181.23486328 1657.55126953 C180.74526123 1656.84631348 180.25565918 1656.14135742 179.7512207 1655.41503906 C175.52650735 1648.90235903 173.21906318 1642.1893131 171.10180664 1634.74853516 C170.55086163 1632.8135561 169.9797841 1630.88547161 169.40478516 1628.95751953 C165.29783167 1614.90930167 162.1583877 1601.10139617 162.02392578 1586.44189453 C161.99585119 1584.69969773 161.96718669 1582.95751036 161.93798828 1581.21533203 C161.89690343 1578.51253595 161.85994788 1575.8099147 161.83349609 1573.10693359 C161.72467921 1562.83687132 161.38909765 1553.41772825 158.23486328 1543.55126953 C155.36347669 1534.31400167 153.49092036 1525.40409858 152.5105896 1515.78948975 C150.41071415 1495.59377911 146.28270074 1477.37882165 134.23486328 1460.55126953 C133.57486328 1460.22126953 132.91486328 1459.89126953 132.23486328 1459.55126953 C131.23887018 1457.86015624 130.24834904 1456.16527331 129.30126953 1454.44628906 C127.75481236 1451.698212 125.98507448 1449.11077153 124.23486328 1446.48876953 C106.03189405 1418.45596508 95.39807705 1388.63599566 89.37988281 1355.84008789 C89.12072955 1354.44170642 88.86156444 1353.04332715 88.60238838 1351.64494991 C85.86405997 1336.78982404 83.37641308 1321.89316809 80.9119277 1306.99063993 C80.27094754 1303.12117235 79.62520261 1299.25250022 78.97976685 1295.3837738 C76.93826641 1283.14214556 74.90336298 1270.89942359 72.87287056 1258.65596479 C71.52747846 1250.54361206 70.17878679 1242.43182306 68.82398617 1234.3210358 C68.18579663 1230.49908651 67.54973761 1226.67681137 66.91909409 1222.85360909 C62.70109428 1197.11446769 62.70109428 1197.11446769 56.23486328 1171.86376953 C54.86222755 1167.19785189 53.86540919 1162.6143186 53.09277344 1157.82446289 C51.21626946 1146.28320065 48.40981138 1135.07636922 45.35986328 1123.80126953 C45.12904053 1122.94689301 44.89821777 1122.09251648 44.66040039 1121.21224976 C41.99180503 1111.36763325 39.24339607 1101.54669861 36.43560791 1091.74090576 C35.47408819 1088.38269038 34.51701527 1085.02323137 33.56054688 1081.66357422 C32.33307174 1077.35220702 31.08761077 1073.04662195 29.83105469 1068.74365234 C26.89919126 1058.56375056 24.56097328 1048.76291937 23.59692383 1038.20703125 C23.09673986 1033.15662344 22.0718196 1028.30010785 20.92236328 1023.36376953 C20.73480469 1022.5278125 20.54724609 1021.69185547 20.35400391 1020.83056641 C19.30435636 1016.16959128 18.22691797 1011.51591488 17.12133789 1006.86791992 C13.92838051 993.30609994 11.39711162 979.68224871 9.0411377 965.95269775 C6.1251575 949.03984007 3.1928574 932.11753274 -0.53036499 915.36044312 C-0.84795888 913.92950119 -1.1597251 912.49725049 -1.46499634 911.06362915 C-3.29328305 902.54266937 -5.70851119 895.67356691 -10.76513672 888.55126953 C-11.24805176 887.86564941 -11.7309668 887.1800293 -12.22851562 886.47363281 C-13.61053434 884.56156369 -15.02245272 882.67751092 -16.45263672 880.80126953 C-19.06374916 877.37440709 -21.46314266 874.16854835 -23.36279297 870.28564453 C-27.46993355 862.27729241 -38.65299226 858.96922195 -46.76367188 856.18554688 C-59.00231925 852.3070392 -71.06313997 852.1134696 -83.76513672 852.55126953 C-84.89564453 852.57060547 -86.02615234 852.58994141 -87.19091797 852.60986328 C-96.18926254 852.98717633 -104.58390727 855.3271917 -113.1875 857.81542969 C-115.7045743 858.53398073 -118.23047798 859.20695974 -120.76123047 859.87548828 C-145.45560851 866.64690043 -169.10904775 877.73499733 -192.20263672 888.67626953 C-193.28448242 889.18367676 -194.36632813 889.69108398 -195.48095703 890.21386719 C-200.6571507 892.72523024 -205.00507572 895.28289636 -209.23706055 899.18505859 C-221.58038619 910.22088704 -240.66716651 915.69450526 -255.89013672 921.36376953 C-268.77411439 926.1660128 -281.25644437 931.85612359 -293.76513672 937.55126953 C-294.59029785 937.92251953 -295.41545898 938.29376953 -296.265625 938.67626953 C-308.79193081 944.31324477 -320.76519892 950.87886544 -332.76513672 957.55126953 C-334.91739034 958.7441405 -337.06973665 959.93684424 -339.22216797 961.12939453 C-343.74312849 963.63623247 -348.26092625 966.14866172 -352.77685547 968.66455078 C-356.9329861 970.97911288 -361.09287748 973.28639561 -365.25959778 975.58183289 C-367.68098917 976.91589333 -370.1009687 978.25250438 -372.52090454 979.58920288 C-374.20279138 980.51688169 -375.88663772 981.44100518 -377.57055664 982.36499023 C-387.53427158 987.87321668 -396.77568301 993.40439583 -405.12841797 1001.18017578 C-409.50196312 1005.11312675 -414.21365892 1008.60127308 -418.90673828 1012.13867188 C-420.91145861 1013.66249109 -422.89775179 1015.20834326 -424.88232422 1016.75830078 C-435.47074832 1025.00204198 -446.15628936 1032.49741184 -457.95263672 1038.92626953 C-468.12874981 1044.83059183 -476.42395803 1053.0545774 -479.76513672 1064.55126953 C-486.0419795 1091.16107644 -481.11838729 1117.46244485 -471.55419922 1142.41113281 C-462.52258542 1166.05565724 -457.93714585 1190.29075069 -455.97924805 1215.47924805 C-455.41116999 1221.98398955 -454.38579799 1227.40060128 -451.72802734 1233.37451172 C-444.71987909 1249.21747567 -442.51039688 1268.83778363 -439.95483398 1285.85766602 C-439.57500965 1288.38122381 -439.18338671 1290.90275842 -438.79052734 1293.42431641 C-432.07849016 1337.10256431 -440.06747874 1371.74190313 -461.37255859 1410.03271484 C-472.55644003 1430.259384 -480.43278727 1451.52962892 -484.89794922 1474.21923828 C-489.12430267 1495.53892228 -497.08496078 1519.43107337 -515.76513672 1532.55126953 C-525.39930551 1538.6023319 -535.57400247 1539.50396307 -546.76513672 1538.55126953 C-553.75581435 1536.85440447 -558.7107725 1532.47984641 -563.76513672 1527.55126953 C-564.33490234 1527.02662109 -564.90466797 1526.50197266 -565.49169922 1525.96142578 C-566.76513672 1524.55126953 -566.76513672 1524.55126953 -566.76513672 1522.55126953 C-567.42513672 1522.55126953 -568.08513672 1522.55126953 -568.76513672 1522.55126953 C-577.00136645 1506.68799866 -581.0857842 1490.17073462 -584.70263672 1472.73876953 C-590.40557467 1441.97043735 -590.40557467 1441.97043735 -607.10107422 1416.32080078 C-609.86908334 1413.44320773 -612.13729628 1410.43333399 -614.32763672 1407.11376953 C-614.75109375 1406.4725415 -615.17455078 1405.83131348 -615.61083984 1405.1706543 C-628.46912234 1385.29303725 -638.85184764 1363.74370485 -646.51513672 1341.36376953 C-647.02596802 1339.89967651 -647.02596802 1339.89967651 -647.54711914 1338.40600586 C-655.2187026 1315.08490888 -658.84393194 1290.26010553 -663.42721558 1266.18270874 C-665.00326066 1257.9047274 -666.59536657 1249.62982615 -668.18614388 1241.35466576 C-668.71614603 1238.59743226 -669.24583203 1235.84013816 -669.77549744 1233.08283997 C-676.7583243 1196.7440676 -683.76252168 1160.45288978 -692.76513672 1124.55126953 C-693.18662994 1122.86587067 -693.18662994 1122.86587067 -693.61663818 1121.14642334 C-703.23775493 1082.65454347 -703.23775493 1082.65454347 -713.45513916 1044.31817627 C-719.4951842 1022.3225578 -724.73881356 1000.13831902 -730.03386402 977.95475769 C-731.06848017 973.62084961 -732.10396384 969.28714942 -733.14013672 964.95361328 C-733.35402731 964.05904167 -733.5679179 963.16447006 -733.78829002 962.24279022 C-741.04274079 931.9248524 -748.53005131 901.66320159 -755.98060608 871.39300823 C-757.12744311 866.73313666 -758.27371305 862.07312566 -759.41998291 857.41311455 C-760.21047822 854.20107343 -761.00214754 850.98932341 -761.79394531 847.77760315 C-768.70668386 819.70937037 -768.70668386 819.70937037 -770.14013672 809.80126953 C-772.03740907 797.80396241 -775.481751 786.55226178 -780.01513672 775.30126953 C-784.60944582 763.89649836 -788.03752795 752.12376648 -791.60351562 740.36669922 C-793.48389526 734.19045437 -795.40818669 728.02795802 -797.32763672 721.86376953 C-798.44397688 718.26586645 -799.55918995 714.66761535 -800.67431641 711.06933594 C-801.39554842 708.7432497 -802.11754078 706.41739907 -802.84033203 704.09179688 C-813.53192334 669.68224792 -813.53192334 669.68224792 -817.22216797 654.69970703 C-819.75718503 644.45149819 -822.49680752 634.85960204 -827.05419922 625.31689453 C-830.91947362 617.10616997 -833.52379993 608.38946513 -835.92919922 599.66064453 C-836.22202789 598.60592957 -836.51485657 597.5512146 -836.81655884 596.46453857 C-840.94547274 581.43967522 -844.72389855 566.32187102 -848.53161621 551.2131958 C-849.35381158 547.95434984 -850.1793615 544.69635753 -851.00496483 541.43837357 C-851.80556481 538.27822446 -852.60480201 535.11773208 -853.40355301 531.95711517 C-853.78204735 530.45957555 -854.16080412 528.96210223 -854.53983688 527.46469879 C-855.06462887 525.39003676 -855.58774414 523.31495934 -856.11035156 521.23974609 C-856.55500259 519.4775473 -856.55500259 519.4775473 -857.00863647 517.67974854 C-858.16845608 512.88335712 -858.91186392 508.29438852 -859.31005859 503.36987305 C-860.20858893 492.38961841 -861.67627486 481.51091172 -863.26513672 470.61376953 C-863.37273315 469.86294098 -863.48032959 469.11211243 -863.59118652 468.33853149 C-863.90325 466.17017627 -864.22340697 464.00317907 -864.54638672 461.83642578 C-864.73265625 460.57709229 -864.91892578 459.31775879 -865.11083984 458.02026367 C-865.67135442 454.58952814 -865.67135442 454.58952814 -866.79467773 451.56030273 C-867.93233602 448.03284654 -868.23730408 444.81786621 -868.51123047 441.12158203 C-868.56683136 440.39639374 -868.62243225 439.67120544 -868.67971802 438.92404175 C-868.86228421 436.50865076 -869.03296294 434.09259826 -869.20263672 431.67626953 C-869.32925377 429.93796971 -869.45613202 428.1996889 -869.58325195 426.46142578 C-869.92163224 421.78507835 -870.24668199 417.10789631 -870.56726074 412.43029785 C-870.76257051 409.588607 -870.9613185 406.74717337 -871.16064453 403.90576172 C-872.82917326 379.96857339 -874.08150191 356.03096371 -874.95263672 332.05126953 C-874.99542755 330.88563477 -875.03821838 329.72 -875.08230591 328.51904297 C-875.31378482 322.11413108 -875.52147536 315.70925027 -875.69024658 309.30236816 C-875.73811308 307.54398615 -875.79111383 305.78573151 -875.85076904 304.02770996 C-876.33251825 289.53599956 -876.33251825 289.53599956 -872.51513672 282.80126953 C-872.16451172 282.16479492 -871.81388672 281.52832031 -871.45263672 280.87255859 C-870.26106018 278.74139131 -869.01724578 276.64739285 -867.76513672 274.55126953 C-866.79075742 272.87443074 -865.81681808 271.19733624 -864.84326172 269.52001953 C-859.93132798 261.14651384 -854.84664947 252.92330995 -849.28857422 244.96142578 C-847.66580005 242.59384188 -847.66580005 242.59384188 -846.81201172 239.83251953 C-845.76513672 237.55126953 -845.76513672 237.55126953 -843.88232422 236.54736328 C-843.14240234 236.36302734 -842.40248047 236.17869141 -841.64013672 235.98876953 C-834.14066223 233.79844682 -828.61629404 230.56807301 -822.45263672 225.73876953 C-799.89751832 208.07695399 -773.80373806 200.50468077 -745.10400391 202.13525391 C-733.19558543 203.61901707 -722.14272638 209.91314084 -712.10546875 216.17211914 C-709.6573035 217.61481531 -707.15968512 218.80549007 -704.57763672 219.98876953 C-694.26726377 225.51794535 -685.69823809 235.78011023 -678.29638672 244.71142578 C-677.19805808 246.03110127 -676.04467831 247.30568397 -674.85888672 248.54736328 C-659.47114789 265.62183502 -654.18303038 295.02568104 -650.94482422 317.08642578 C-648.41314454 334.1441812 -644.7248294 350.75880659 -639.62207031 367.24414062 C-636.01493606 378.90046368 -633.491663 390.71030864 -631.00311279 402.6491394 C-626.99763983 421.7931535 -622.54909377 440.69309402 -617.14013672 459.48876953 C-606.93491875 495.15063339 -600.46489223 531.5498474 -593.88110352 568.02319336 C-590.70808009 585.58270543 -587.31996612 603.08976096 -583.82052612 620.58679199 C-580.69634073 636.25569374 -577.94053587 651.94638751 -575.65258789 667.75976562 C-573.85185446 683.05773786 -573.85185446 683.05773786 -565.76513672 695.55126953 C-560.86273399 697.57772478 -555.93685713 698.21422991 -550.71435547 698.84033203 C-549.83635788 698.94898087 -548.95836029 699.0576297 -548.05375671 699.16957092 C-512.83524838 703.44332314 -480.94423614 703.02999056 -445.9609375 697.38037109 C-441.09856412 696.5974437 -436.22911162 695.8739153 -431.35498047 695.16845703 C-339.43964591 681.77152557 -248.0028232 661.99629993 -99.5413208 627.41870117 C-97.59685173 626.93159279 -95.65136054 626.44854283 -93.70477295 625.9699707 C-91.10232328 625.32715066 -88.5055005 624.66555291 -85.90966797 623.99658203 C-85.18666 623.82027252 -84.46365204 623.64396301 -83.71873474 623.46231079 C-77.60591573 621.84055085 -72.00916148 619.07579739 -67.76513672 614.30126953 C-62.38511418 599.50620754 -70.32258041 577.83578479 -74.70922852 563.74121094 C-77.0275811 556.23340155 -78.99695742 548.74876339 -80.57763672 541.05126953 C-80.75987793 540.17035645 -80.94211914 539.28944336 -81.12988281 538.38183594 C-82.13105564 533.3279893 -82.97480108 528.25864803 -83.75663757 523.16725159 C-85.44466364 512.176081 -87.50995582 501.27969087 -89.63549805 490.36578369 C-103.34432616 419.5612014 -113.93027767 347.933386 -120.14550781 276.06640625 C-120.91391428 267.41643147 -121.961056 259.02193918 -123.79248047 250.52783203 C-126.0006808 240.26257539 -126.82211133 230.07894125 -127.45263672 219.61376953 C-127.56930865 217.85913428 -127.6871467 216.10457617 -127.80615234 214.35009766 C-133.17711813 133.68736999 -133.17711813 133.68736999 -122.84667969 105.64697266 C-121.35423985 101.3751584 -120.23907134 97.03232933 -119.10473633 92.65429688 C-115.21081343 77.68324467 -109.65821977 63.87084719 -101.76513672 50.55126953 C-101.10513672 50.55126953 -100.44513672 50.55126953 -99.76513672 50.55126953 C-99.53826172 49.87064453 -99.31138672 49.19001953 -99.07763672 48.48876953 C-96.01394286 41.63193089 -92.3108165 38.03910275 -85.97607422 34.08251953 C-81.47125065 30.96257105 -78.44567075 26.67595621 -75.51513672 22.11376953 C-74.64888672 20.84533203 -74.64888672 20.84533203 -73.76513672 19.55126953 C-73.10513672 19.55126953 -72.44513672 19.55126953 -71.76513672 19.55126953 C-71.76513672 18.89126953 -71.76513672 18.23126953 -71.76513672 17.55126953 C-62.16597778 9.12014984 -50.02214782 5.48571759 -38.08349609 1.69360352 C-34.72262005 0.6131633 -31.68384324 -0.49021073 -28.52685547 -2.10107422 C-19.71700818 -6.40008032 -8.96570615 -2.31429858 0 0 Z " fill="#FEFEFE" transform="translate(1275.76513671875,222.44873046875)"/>
<path d="M0 0 C0.66 0.33 1.32 0.66 2 1 C-1.63 4.63 -5.26 8.26 -9 12 C-9 9 -9 9 -7 6 C-6.34 6 -5.68 6 -5 6 C-5 5.34 -5 4.68 -5 4 C-3.37373596 2.61767557 -1.7074998 1.28062485 0 0 Z " fill="#DAD8D8" transform="translate(1209,236)"/>
</svg>
